# vtk DataFile Version 2.0
tracks
ASCII
DATASET POLYDATA
POINTS 10 float
-0.0205 0.001 1e-05 -0.0205 0.00367778 1e-05 -0.0205 0.00635556 1e-05 -0.0205 0.00903333
1e-05 -0.0205 0.0117111 1e-05 -0.0205 0.0143889 1e-05 -0.0205 0.0170667 1e-05
-0.0205 0.0197444 1e-05 -0.0205 0.0224222 1e-05 -0.0205 0.0251 1e-05 
VERTICES 10 20
1 0 1 1 1 2 1 3 1 4 1
5 1 6 1 7 1 8 1 9 
POINT_DATA 10
FIELD attributes 4
age 1 10 float
0 0 0 0 0 0 0 0 0 0 
p 1 10 float
0 0 0 0 0 0 0 0 0 0 
k 1 10 float
2.215e-07 2.215e-07 2.215e-07 2.215e-07 2.215e-07 2.215e-07 2.215e-07 2.215e-07 2.215e-07 2.215e-07 
U 3 10 float
0 0 0 0 0 0 0 0 0 0 0
0 0 0 0 0 0 0 0 0 0
0 0 0 0 0 0 0 0 0 
